<?xml version="1.0" encoding="UTF-8"?>
<svg xmlns="http://www.w3.org/2000/svg" viewBox="0 0 617.83 96.01">
  <g id="Layer_2" data-name="Layer 2">
    <g id="Layer_1-2" data-name="Layer 1">
      <path d="M232.86,27.36c-6.06,0-10.91,1.63-16,4.11,0-14.29.24-26.75.57-31.47L188.1,5.67V8.32l2.86.37c4.09.56,5.67,3,6.15,8.43.92,10.47.79,66.72,0,75.73a115.89,115.89,0,0,0,25,3.14c23.31,0,37.34-14.41,37.34-37.21C259.5,40.5,248.11,27.36,232.86,27.36Zm-10.24,64a31.91,31.91,0,0,1-5-.48c-.46-6.32-.75-32.34-.72-55.07a19,19,0,0,1,6.86-1.13c9.65,0,15.07,11.14,15.1,25.21C238.88,77.76,232.19,91.33,222.62,91.33ZM77.67,28.05l-4.58,1.27C69.09,16,62.73,8.41,50.83,8.41H35.58c-.71,8.51-1,22.7-.91,37.46l10.26-.32c6.83-.23,9.69-5.29,11.33-12.79h3.83V64H56.26c-1.64-7.51-4.5-12.56-11.33-12.79L34.7,50.9c.1,11.22.4,20.76.88,26.43.69,8.32,3,12,8.85,12.83l5.21.55v3.72H0V90.71l4.11-.55C10,89.3,12.26,85.65,13,77.33c1.14-13.72,1.32-42.22,0-58.15-.7-8.33-3-12-8.85-12.83L0,5.79V2.07H77.26Zm24.7-1.43c21.95,0,32.86,14.89,32.86,34.51C135.23,80.3,122.92,96,101,96S68.08,81.12,68.08,61.49C68.08,42.32,80.39,26.62,102.37,26.62Zm-1.15,4.25C91.51,30.87,88.8,44,88.8,61.31c0,16.84,4.29,30.44,13.3,30.44,9.7,0,12.42-13.13,12.42-30.44C114.52,44.47,110.22,30.87,101.22,30.87ZM264.89,61.92c0-18.16,11.45-35.26,34.09-35.26,18.42,0,27.2,13.66,27.31,31.52H285.2c-.46,16.2,7.75,28.1,23.45,28.1,6.91,0,10.64-1.71,14.81-4.9l1.93,2.31C320.84,90,311.33,96,298.7,96,278.91,96,264.92,82,264.89,61.92Zm20.46-8.36,20.6-.45C306.05,44,304.59,31,297.18,31S285.53,43.3,285.35,53.56Zm93.72-6.5-3.35.88c-3.58-11.6-9-16.55-17-16.55-5.31,0-9.14,4-9.14,9.77s4.31,8.77,16.71,13.57c11.48,4.45,16,9.55,16,18.87,0,13.87-10.62,22.41-28.13,22.41-8.39,0-17.73-1.87-23.2-4.08l-.58-19.21,3.36-.88c4.81,13.43,11.07,18.32,19.35,18.32,7,0,10.94-5,10.94-10.33,0-5.18-2.95-8.3-14.15-12.3C339.49,63.81,332,59.24,332,47.6c0-11.3,10-21,26.54-21,7.68,0,15,1.35,19.84,3.58Zm-193.7-.53c-8.9-6-18.47-3.36-20.45-.12a294.36,294.36,0,0,0,.21,35.5c.48,5.48,2.06,7.87,6.16,8.44l5.31.36v3.72H135.83V90.71l2.86-.36c4.09-.57,5.67-3,6.15-8.44a283.19,283.19,0,0,0,0-38.22c-.48-5.47-2.06-7.87-6.15-8.44l-2.86-.37V32.24l29.28-5.67-.33,15.31c6.84-15.74,20.35-17.83,27.76-13.4Z"></path>
      <rect x="415.54" y="30.81" width="5.65" height="58.73"></rect>
      <path d="M453.89,84.24V38.05h15.16q6.26,0,10,3.58a11.51,11.51,0,0,1,3.77,8.65q0,6.38-4.94,9.43,8,2.94,8,11.06a12.4,12.4,0,0,1-4.26,9.67q-4.26,3.81-11.23,3.8Zm6.05-26.35h9.11a8.09,8.09,0,0,0,5.76-2,6.76,6.76,0,0,0,2.11-5.17,6.85,6.85,0,0,0-2.15-5.14,7.83,7.83,0,0,0-5.72-2.08h-9.11Zm0,20.89h10.74q4.54,0,6.93-2.12A7.22,7.22,0,0,0,480,71a7.37,7.37,0,0,0-2.37-5.69q-2.39-2.18-6.87-2.18h-10.8Z"></path>
      <path d="M505.81,84.89A16.67,16.67,0,0,1,488.76,68a17,17,0,1,1,34,0,16.67,16.67,0,0,1-17,16.91Zm-8.17-8.58a10.69,10.69,0,0,0,8.17,3.38,10.56,10.56,0,0,0,8.13-3.38,12.68,12.68,0,0,0,0-16.66,10.56,10.56,0,0,0-8.13-3.38,10.69,10.69,0,0,0-8.17,3.38,12.59,12.59,0,0,0,0,16.66Z"></path>
      <path d="M542.63,84.89a16.67,16.67,0,0,1-17-16.91,17,17,0,1,1,34,0,16.67,16.67,0,0,1-17,16.91Zm-8.17-8.58a10.69,10.69,0,0,0,8.17,3.38,10.56,10.56,0,0,0,8.13-3.38,12.68,12.68,0,0,0,0-16.66,10.56,10.56,0,0,0-8.13-3.38,10.69,10.69,0,0,0-8.17,3.38,12.59,12.59,0,0,0,0,16.66Z"></path>
      <path d="M586.74,84.24,569.11,68V84.24h-5.6V35.45h5.6v29l14.18-12.69h7.42l-16,14.38,19.58,18.15Z"></path>
      <path d="M605.86,84.89a15.14,15.14,0,0,1-9.14-2.66,9.73,9.73,0,0,1-4.06-7.42h5.72a5.74,5.74,0,0,0,2.64,4,9.14,9.14,0,0,0,4.91,1.3,8.25,8.25,0,0,0,4.52-1.1,3.56,3.56,0,0,0,1.72-3.19,4.25,4.25,0,0,0-1.26-3.18,9.49,9.49,0,0,0-4.14-2l-4.68-1.24q-8.39-2.2-8.39-9.56a7.62,7.62,0,0,1,3.16-6.38A13,13,0,0,1,605,51.06a12.59,12.59,0,0,1,8.24,2.64,9.47,9.47,0,0,1,3.6,6.67H611.2A6.36,6.36,0,0,0,608.89,57,6.44,6.44,0,0,0,605,55.75a6.93,6.93,0,0,0-4,1.1,3.42,3.42,0,0,0-1.59,2.93,3.78,3.78,0,0,0,1.17,2.87,9.11,9.11,0,0,0,3.77,1.82l5.21,1.36q8.32,2.08,8.32,9.63a8.12,8.12,0,0,1-3.31,7.06A14.57,14.57,0,0,1,605.86,84.89Z"></path>
    </g>
  </g>
</svg>
