<?xml version="1.0" encoding="UTF-8"?>
<svg xmlns="http://www.w3.org/2000/svg" width="295" height="43" viewBox="0 0 295 43" fill="none">
  <path d="M1.48827 32.208C1.48827 29.2947 1.48827 26.394 1.48827 23.506C1.5136 20.5927 1.48827 17.6793 1.41227 14.766C1.3616 12.866 1.27293 10.9787 1.14627 9.104C1.04493 7.22933 0.994266 5.342 0.994266 3.442C0.994266 2.63133 1.29827 1.998 1.90627 1.542C2.51427 1.086 3.1856 0.857999 3.92027 0.857999C4.3256 0.857999 4.7056 0.971999 5.06027 1.2C5.41493 1.40266 5.71893 1.656 5.97227 1.96C7.03627 1.93467 8.2016 2.01067 9.46827 2.188C10.7603 2.36533 12.0649 2.65667 13.3823 3.062C14.6996 3.442 15.9789 3.936 17.2203 4.544C18.4616 5.12667 19.5636 5.836 20.5263 6.672C21.4889 7.508 22.2616 8.458 22.8443 9.522C23.4269 10.586 23.7183 11.7767 23.7183 13.094C23.7183 14.4367 23.4143 15.716 22.8063 16.932C22.1983 18.1227 21.4129 19.2247 20.4503 20.238C19.5129 21.226 18.4489 22.1 17.2583 22.86C16.0929 23.62 14.9276 24.2027 13.7623 24.608C14.1929 24.836 14.7249 25.064 15.3583 25.292C15.9916 25.52 16.5996 25.7987 17.1823 26.128C17.7903 26.4573 18.2969 26.8627 18.7023 27.344C19.1329 27.8 19.3483 28.3573 19.3483 29.016C19.3483 29.7253 19.0949 30.3713 18.5883 30.954C18.0816 31.5113 17.4609 31.79 16.7263 31.79C16.4729 31.79 16.0549 31.6887 15.4723 31.486C14.9149 31.2833 14.2816 31.03 13.5723 30.726C12.8883 30.3967 12.1663 30.0547 11.4063 29.7C10.6463 29.32 9.9496 28.978 9.31627 28.674C8.68293 28.3447 8.15093 28.0787 7.72027 27.876C7.31493 27.6733 7.0996 27.5593 7.07427 27.534C7.07427 27.9647 7.08693 28.4587 7.11227 29.016C7.1376 29.548 7.15027 30.0927 7.15027 30.65C7.15027 31.182 7.11227 31.714 7.03627 32.246C6.96027 32.7527 6.80827 33.2087 6.58027 33.614C6.35227 34.0193 6.0356 34.336 5.63027 34.564C5.22493 34.8173 4.7056 34.944 4.07227 34.944C3.7176 34.944 3.3756 34.8553 3.04627 34.678C2.74227 34.526 2.47627 34.3233 2.24827 34.07C2.02027 33.8167 1.83027 33.5253 1.67827 33.196C1.5516 32.8667 1.48827 32.5373 1.48827 32.208ZM18.1703 13.588C18.1703 12.8787 17.9549 12.2327 17.5243 11.65C17.1189 11.0673 16.5869 10.5607 15.9283 10.13C15.2696 9.674 14.5223 9.28133 13.6863 8.952C12.8503 8.62267 12.0016 8.35666 11.1403 8.154C10.3043 7.926 9.4936 7.76133 8.70827 7.66C7.92293 7.55867 7.2516 7.508 6.69427 7.508C6.82093 9.73733 6.89693 11.9667 6.92227 14.196C6.97293 16.4253 7.01093 18.6547 7.03627 20.884C7.5176 20.808 8.1256 20.656 8.86027 20.428C9.62027 20.2 10.4056 19.9213 11.2163 19.592C12.0523 19.2373 12.8756 18.8447 13.6863 18.414C14.5223 17.9833 15.2696 17.5147 15.9283 17.008C16.5869 16.476 17.1189 15.9313 17.5243 15.374C17.9549 14.7913 18.1703 14.196 18.1703 13.588ZM39.2555 36.844C40.1168 36.844 40.8642 36.6287 41.4975 36.198C42.1308 35.7673 42.6502 35.21 43.0555 34.526C43.4862 33.842 43.8282 33.0567 44.0815 32.17C44.3349 31.2833 44.5249 30.3967 44.6515 29.51C44.8035 28.598 44.8922 27.7113 44.9175 26.85C44.9682 25.9887 44.9935 25.2287 44.9935 24.57C44.4869 25.254 43.9169 25.938 43.2835 26.622C42.6755 27.2807 42.0042 27.876 41.2695 28.408C40.5348 28.94 39.7495 29.3707 38.9135 29.7C38.1028 30.0293 37.2415 30.194 36.3295 30.194C34.6068 30.194 33.1248 29.8013 31.8835 29.016C30.6675 28.2307 29.6542 27.23 28.8435 26.014C28.0582 24.7727 27.4755 23.392 27.0955 21.872C26.7408 20.352 26.5635 18.8573 26.5635 17.388C26.5635 16.8307 26.5635 16.21 26.5635 15.526C26.5635 14.8167 26.6395 14.158 26.7915 13.55C26.9688 12.9167 27.2475 12.3847 27.6275 11.954C28.0328 11.5233 28.6408 11.308 29.4515 11.308C30.2115 11.308 30.8575 11.5867 31.3895 12.144C31.9468 12.676 32.2255 13.322 32.2255 14.082C32.2255 15.0447 32.1875 16.0327 32.1115 17.046C32.0608 18.0593 32.1115 19.0473 32.2635 20.01C32.5168 21.5807 32.9855 22.7207 33.6695 23.43C34.3788 24.114 35.1642 24.4433 36.0255 24.418C36.9122 24.3673 37.8115 24 38.7235 23.316C39.6355 22.6067 40.4335 21.6567 41.1175 20.466C41.5482 19.706 41.9408 18.9207 42.2955 18.11C42.6755 17.274 43.0175 16.476 43.3215 15.716C43.6255 14.9307 43.8915 14.196 44.1195 13.512C44.3728 12.8027 44.5755 12.2073 44.7275 11.726C44.8795 11.27 45.1709 10.8267 45.6015 10.396C46.0575 9.96533 46.5388 9.75 47.0455 9.75C47.8308 9.75 48.5402 9.96533 49.1735 10.396C49.8322 10.8013 50.1615 11.4473 50.1615 12.334C50.1615 13.6513 50.2375 14.9687 50.3895 16.286C50.5669 17.578 50.6555 18.8953 50.6555 20.238C50.6555 21.606 50.6302 23.1007 50.5795 24.722C50.5288 26.3433 50.3895 27.9773 50.1615 29.624C49.9589 31.2707 49.6169 32.854 49.1355 34.374C48.6542 35.9193 47.9828 37.2873 47.1215 38.478C46.2855 39.6687 45.2215 40.6187 43.9295 41.328C42.6375 42.0373 41.0542 42.392 39.1795 42.392C38.0142 42.392 36.8742 42.202 35.7595 41.822C34.6448 41.442 33.5935 40.9227 32.6055 40.264C31.6175 39.6307 30.6928 38.896 29.8315 38.06C28.9955 37.224 28.2608 36.3373 27.6275 35.4C27.3742 34.9947 27.2475 34.526 27.2475 33.994C27.2475 33.1833 27.5388 32.5247 28.1215 32.018C28.7042 31.5113 29.3755 31.258 30.1355 31.258C30.7435 31.258 31.3262 31.5493 31.8835 32.132C32.4408 32.7147 33.0615 33.348 33.7455 34.032C34.4295 34.7413 35.2022 35.3873 36.0635 35.97C36.9502 36.5527 38.0142 36.844 39.2555 36.844ZM57.9304 33.804C57.3478 33.804 56.8284 33.652 56.3724 33.348C55.9164 33.044 55.5871 32.626 55.3844 32.094C55.2831 31.866 55.1818 31.258 55.0804 30.27C54.9791 29.282 54.8778 28.104 54.7764 26.736C54.6751 25.3427 54.5738 23.848 54.4724 22.252C54.3964 20.656 54.3204 19.1233 54.2444 17.654C54.1938 16.1847 54.1431 14.8673 54.0924 13.702C54.0671 12.5367 54.0544 11.7133 54.0544 11.232C54.0544 10.8773 54.1304 10.548 54.2824 10.244C54.4344 9.91467 54.6371 9.636 54.8904 9.408C55.1691 9.15467 55.4604 8.96466 55.7644 8.838C56.0938 8.686 56.4358 8.61 56.7904 8.61C57.4998 8.61 58.0444 8.762 58.4244 9.066C58.8044 9.37 59.0704 9.75 59.2224 10.206C59.3998 10.662 59.5011 11.1687 59.5264 11.726C59.5771 12.2833 59.6151 12.8153 59.6404 13.322C60.0711 12.6127 60.6031 12.0553 61.2364 11.65C61.8698 11.2193 62.6171 11.004 63.4784 11.004C64.2384 11.004 64.9224 11.1687 65.5304 11.498C66.1384 11.8273 66.6704 12.2453 67.1264 12.752C67.6078 13.2587 68.0131 13.8413 68.3424 14.5C68.6971 15.1333 68.9884 15.7667 69.2164 16.4C69.5964 15.488 70.0271 14.576 70.5084 13.664C70.9898 12.7267 71.5598 11.8907 72.2184 11.156C72.9024 10.396 73.6751 9.788 74.5364 9.332C75.3978 8.85067 76.3984 8.61 77.5384 8.61C78.7038 8.61 79.7044 8.88867 80.5404 9.446C81.4018 9.978 82.1238 10.7 82.7064 11.612C83.2891 12.4987 83.7578 13.512 84.1124 14.652C84.4671 15.792 84.7458 16.9573 84.9484 18.148C85.1511 19.3387 85.2778 20.4913 85.3284 21.606C85.4044 22.7207 85.4424 23.7087 85.4424 24.57C85.4424 25.178 85.4424 25.9633 85.4424 26.926C85.4424 27.8887 85.3538 28.8387 85.1764 29.776C85.0244 30.688 84.7204 31.486 84.2644 32.17C83.8338 32.8287 83.1878 33.158 82.3264 33.158C81.5158 33.158 80.8318 32.9047 80.2744 32.398C79.7424 31.866 79.4764 31.1947 79.4764 30.384C79.4764 30.156 79.5018 29.6113 79.5524 28.75C79.6031 27.8633 79.6538 26.8247 79.7044 25.634C79.7551 24.418 79.7678 23.1387 79.7424 21.796C79.7171 20.4533 79.6411 19.2247 79.5144 18.11C79.3878 16.97 79.1724 16.0327 78.8684 15.298C78.5644 14.538 78.1464 14.158 77.6144 14.158C77.1078 14.158 76.5884 14.5 76.0564 15.184C75.5498 15.868 75.0558 16.742 74.5744 17.806C74.0931 18.8447 73.6371 19.9973 73.2064 21.264C72.8011 22.5307 72.4338 23.7467 72.1044 24.912C71.8004 26.052 71.5344 27.078 71.3064 27.99C71.1038 28.8767 70.9644 29.472 70.8884 29.776C70.7618 30.3587 70.4198 30.8527 69.8624 31.258C69.3304 31.638 68.7731 31.828 68.1904 31.828C67.8611 31.828 67.5318 31.7647 67.2024 31.638C66.8731 31.486 66.5818 31.2833 66.3284 31.03C66.0751 30.7767 65.8598 30.498 65.6824 30.194C65.5304 29.8647 65.4544 29.5227 65.4544 29.168C65.4544 28.408 65.4164 27.5213 65.3404 26.508C65.2644 25.4693 65.1504 24.4053 64.9984 23.316C64.7704 21.644 64.4918 20.3773 64.1624 19.516C63.8331 18.6547 63.4911 18.224 63.1364 18.224C62.7818 18.224 62.4144 18.6673 62.0344 19.554C61.6544 20.4153 61.2998 21.758 60.9704 23.582C60.8184 24.494 60.6918 25.4187 60.5904 26.356C60.4891 27.2933 60.4131 28.1673 60.3624 28.978C60.3371 29.7633 60.3244 30.4727 60.3244 31.106C60.3244 31.714 60.3244 32.1573 60.3244 32.436C60.3244 32.7147 60.2484 32.9427 60.0964 33.12C59.9698 33.272 59.7924 33.3987 59.5644 33.5C59.3364 33.6267 59.0704 33.7027 58.7664 33.728C58.4878 33.7787 58.2091 33.804 57.9304 33.804ZM99.0197 31.828C97.4237 31.828 95.9797 31.4987 94.6877 30.84C93.4211 30.156 92.3317 29.2693 91.4197 28.18C90.5331 27.0653 89.8491 25.8113 89.3677 24.418C88.8864 22.9993 88.6457 21.5427 88.6457 20.048C88.6457 18.6547 88.9117 17.2993 89.4437 15.982C90.0011 14.6647 90.7357 13.4993 91.6477 12.486C92.5851 11.4473 93.6744 10.624 94.9157 10.016C96.1824 9.38267 97.5377 9.066 98.9817 9.066C100.046 9.066 101.072 9.256 102.06 9.636C103.048 10.016 103.909 10.548 104.644 11.232C105.404 11.916 106.012 12.7267 106.468 13.664C106.924 14.6013 107.152 15.6273 107.152 16.742C107.152 18.0087 106.86 19.1233 106.278 20.086C105.695 21.0233 104.948 21.8213 104.036 22.48C103.124 23.1133 102.098 23.5947 100.958 23.924C99.8431 24.2533 98.7284 24.418 97.6137 24.418C97.2591 24.418 96.8791 24.4053 96.4737 24.38C96.0937 24.3293 95.7264 24.2787 95.3717 24.228C95.8277 24.8867 96.3471 25.406 96.9297 25.786C97.5124 26.1407 98.2091 26.318 99.0197 26.318C99.6277 26.318 100.122 26.2293 100.502 26.052C100.882 25.8747 101.224 25.6847 101.528 25.482C101.857 25.2793 102.186 25.0893 102.516 24.912C102.845 24.7347 103.25 24.646 103.732 24.646C104.112 24.646 104.454 24.722 104.758 24.874C105.087 25.026 105.366 25.2287 105.594 25.482C105.847 25.7353 106.037 26.0393 106.164 26.394C106.316 26.7233 106.392 27.0653 106.392 27.42C106.392 28.18 106.113 28.8387 105.556 29.396C105.024 29.928 104.365 30.384 103.58 30.764C102.82 31.1187 102.022 31.3847 101.186 31.562C100.35 31.7393 99.6277 31.828 99.0197 31.828ZM99.0957 14.576C98.5891 14.576 98.0824 14.69 97.5757 14.918C97.0691 15.1207 96.6131 15.3867 96.2077 15.716C95.8024 16.02 95.4857 16.362 95.2577 16.742C95.0297 17.122 94.9411 17.4767 94.9917 17.806C95.0424 18.11 95.2704 18.376 95.6757 18.604C96.0811 18.8067 96.7271 18.908 97.6137 18.908C98.4751 18.908 99.2351 18.68 99.8937 18.224C100.578 17.768 101.046 17.274 101.3 16.742C101.553 16.21 101.515 15.716 101.186 15.26C100.882 14.804 100.185 14.576 99.0957 14.576ZM126.236 22.48C125.653 22.48 125.185 22.3787 124.83 22.176C124.475 21.948 124.184 21.6567 123.956 21.302C123.728 20.9473 123.538 20.5547 123.386 20.124C123.259 19.668 123.133 19.1993 123.006 18.718C122.626 17.4007 122.195 16.476 121.714 15.944C121.258 15.412 120.802 15.222 120.346 15.374C119.89 15.526 119.459 16.0073 119.054 16.818C118.674 17.6033 118.37 18.6547 118.142 19.972C117.939 21.2133 117.787 22.5053 117.686 23.848C117.585 25.1907 117.483 26.4573 117.382 27.648C117.306 28.8387 117.192 29.8773 117.04 30.764C116.913 31.6507 116.698 32.2587 116.394 32.588C116.141 32.8413 115.837 33.044 115.482 33.196C115.127 33.3227 114.773 33.386 114.418 33.386C113.861 33.386 113.341 33.234 112.86 32.93C112.404 32.6007 112.075 32.1827 111.872 31.676C111.72 31.296 111.581 30.5867 111.454 29.548C111.353 28.5093 111.264 27.2933 111.188 25.9C111.112 24.5067 111.036 23.0247 110.96 21.454C110.909 19.8833 110.859 18.3887 110.808 16.97C110.783 15.526 110.757 14.2467 110.732 13.132C110.732 11.992 110.732 11.156 110.732 10.624C110.732 9.864 110.998 9.218 111.53 8.686C112.087 8.12867 112.746 7.85 113.506 7.85C114.494 7.85 115.203 8.192 115.634 8.876C116.065 9.53467 116.28 10.3073 116.28 11.194L116.318 11.118C116.926 10.5607 117.585 10.13 118.294 9.826C119.029 9.49667 119.814 9.332 120.65 9.332C121.41 9.332 122.132 9.49667 122.816 9.826C123.525 10.1553 124.184 10.5987 124.792 11.156C125.4 11.688 125.957 12.3087 126.464 13.018C126.971 13.7273 127.401 14.4747 127.756 15.26C128.111 16.02 128.389 16.7927 128.592 17.578C128.795 18.338 128.896 19.06 128.896 19.744C128.896 20.0987 128.82 20.4407 128.668 20.77C128.541 21.074 128.351 21.3653 128.098 21.644C127.87 21.8973 127.591 22.1 127.262 22.252C126.933 22.404 126.591 22.48 126.236 22.48Z" fill="#252525"></path>
  <path d="M151.747 3.67C152.481 3.56867 153.406 3.518 154.521 3.518C155.635 3.518 156.725 3.64467 157.789 3.898C158.878 4.126 159.828 4.506 160.639 5.038C161.475 5.57 161.956 6.33 162.083 7.318C162.184 8.05267 161.994 8.724 161.513 9.332C161.031 9.91467 160.436 10.2567 159.727 10.358C159.271 10.434 158.853 10.3833 158.473 10.206C158.093 10.0287 157.649 9.83867 157.143 9.636C156.661 9.43333 156.091 9.26867 155.433 9.142C154.799 8.99 153.989 8.97733 153.001 9.104C152.697 9.15467 152.279 9.23067 151.747 9.332C151.215 9.43333 150.695 9.58533 150.189 9.788C149.682 9.99067 149.251 10.244 148.897 10.548C148.542 10.852 148.403 11.232 148.479 11.688C148.58 12.4733 148.947 13.246 149.581 14.006C150.239 14.7407 151.025 15.488 151.937 16.248C152.874 16.9827 153.862 17.73 154.901 18.49C155.965 19.2247 156.953 19.9973 157.865 20.808C158.802 21.5933 159.6 22.4293 160.259 23.316C160.917 24.1773 161.323 25.102 161.475 26.09C161.652 27.382 161.462 28.4713 160.905 29.358C160.373 30.2447 159.638 30.9793 158.701 31.562C157.763 32.1193 156.725 32.5627 155.585 32.892C154.47 33.196 153.419 33.424 152.431 33.576C152.051 33.6267 151.595 33.6773 151.062 33.728C150.556 33.7787 150.024 33.804 149.467 33.804C148.909 33.8293 148.352 33.804 147.795 33.728C147.237 33.6773 146.731 33.5633 146.275 33.386C145.819 33.1833 145.426 32.9173 145.097 32.588C144.793 32.2587 144.603 31.828 144.527 31.296C144.4 30.4853 144.552 29.7887 144.983 29.206C145.439 28.6233 146.072 28.2813 146.883 28.18C147.668 28.0533 148.479 28.0407 149.315 28.142C150.176 28.218 151.025 28.1927 151.861 28.066C153.026 27.914 153.913 27.7493 154.521 27.572C155.154 27.3693 155.483 27.1033 155.509 26.774C155.559 26.4193 155.319 25.9887 154.787 25.482C154.28 24.9753 153.495 24.3167 152.431 23.506C151.519 22.8473 150.543 22.1127 149.505 21.302C148.466 20.4913 147.491 19.6173 146.578 18.68C145.667 17.7427 144.869 16.7547 144.185 15.716C143.526 14.652 143.121 13.5373 142.969 12.372C142.791 11.0547 142.943 9.902 143.425 8.914C143.906 7.90067 144.577 7.03933 145.439 6.33C146.325 5.59533 147.326 5.01267 148.441 4.582C149.555 4.126 150.657 3.822 151.747 3.67ZM175.887 4.43C175.887 5.21533 175.849 5.88667 175.773 6.444C175.723 7.00133 175.659 7.584 175.583 8.192C175.507 8.77467 175.431 9.45867 175.355 10.244C175.279 11.004 175.216 12.0047 175.165 13.246C175.824 13.246 176.609 13.2333 177.521 13.208C178.459 13.1573 179.345 13.208 180.181 13.36C181.043 13.4867 181.765 13.778 182.347 14.234C182.955 14.6647 183.259 15.3613 183.259 16.324C183.259 17.0333 182.968 17.654 182.385 18.186C181.828 18.6927 181.195 18.946 180.485 18.946C179.599 18.946 178.725 18.9333 177.863 18.908C177.002 18.8573 176.128 18.8067 175.241 18.756C175.292 19.6427 175.343 20.7067 175.393 21.948C175.444 23.164 175.583 24.3293 175.811 25.444C175.913 26.0013 176.014 26.47 176.115 26.85C176.242 27.23 176.381 27.4833 176.533 27.61C176.711 27.7113 176.926 27.6607 177.179 27.458C177.433 27.23 177.762 26.812 178.167 26.204C178.421 25.7987 178.712 25.444 179.041 25.14C179.371 24.836 179.865 24.684 180.523 24.684C180.878 24.684 181.22 24.76 181.549 24.912C181.904 25.0387 182.208 25.2287 182.461 25.482C182.74 25.71 182.955 25.9887 183.107 26.318C183.285 26.622 183.373 26.964 183.373 27.344C183.373 28.0533 183.145 28.7753 182.689 29.51C182.259 30.2193 181.701 30.8653 181.017 31.448C180.359 32.0053 179.624 32.474 178.813 32.854C178.028 33.2087 177.293 33.386 176.609 33.386C175.495 33.386 174.545 33.1327 173.759 32.626C172.999 32.094 172.366 31.41 171.859 30.574C171.378 29.738 170.985 28.788 170.681 27.724C170.403 26.6347 170.187 25.5453 170.035 24.456C169.909 23.3667 169.82 22.3153 169.769 21.302C169.744 20.2633 169.719 19.364 169.693 18.604C169.161 18.5787 168.591 18.566 167.983 18.566C167.401 18.5407 166.843 18.452 166.311 18.3C165.805 18.148 165.374 17.882 165.019 17.502C164.69 17.0967 164.525 16.514 164.525 15.754C164.525 14.994 164.791 14.348 165.323 13.816C165.881 13.2587 166.539 12.98 167.299 12.98C167.679 12.98 168.059 12.9927 168.439 13.018C168.845 13.0433 169.237 13.056 169.617 13.056C169.643 12.1187 169.668 11.27 169.693 10.51C169.719 9.75 169.757 9.01533 169.807 8.306C169.858 7.57133 169.921 6.83667 169.997 6.102C170.099 5.342 170.251 4.506 170.453 3.594C170.58 3.01133 170.909 2.53 171.441 2.15C171.973 1.77 172.531 1.58 173.113 1.58C173.924 1.58 174.583 1.85867 175.089 2.416C175.621 2.948 175.887 3.61933 175.887 4.43ZM202.273 22.48C201.69 22.48 201.222 22.3787 200.867 22.176C200.512 21.948 200.221 21.6567 199.993 21.302C199.765 20.9473 199.575 20.5547 199.423 20.124C199.296 19.668 199.17 19.1993 199.043 18.718C198.663 17.4007 198.232 16.476 197.751 15.944C197.295 15.412 196.839 15.222 196.383 15.374C195.927 15.526 195.496 16.0073 195.091 16.818C194.711 17.6033 194.407 18.6547 194.179 19.972C193.976 21.2133 193.824 22.5053 193.723 23.848C193.622 25.1907 193.52 26.4573 193.419 27.648C193.343 28.8387 193.229 29.8773 193.077 30.764C192.95 31.6507 192.735 32.2587 192.431 32.588C192.178 32.8413 191.874 33.044 191.519 33.196C191.164 33.3227 190.81 33.386 190.455 33.386C189.898 33.386 189.378 33.234 188.897 32.93C188.441 32.6007 188.112 32.1827 187.909 31.676C187.757 31.296 187.618 30.5867 187.491 29.548C187.39 28.5093 187.301 27.2933 187.225 25.9C187.149 24.5067 187.073 23.0247 186.997 21.454C186.946 19.8833 186.896 18.3887 186.845 16.97C186.82 15.526 186.794 14.2467 186.769 13.132C186.769 11.992 186.769 11.156 186.769 10.624C186.769 9.864 187.035 9.218 187.567 8.686C188.124 8.12867 188.783 7.85 189.543 7.85C190.531 7.85 191.24 8.192 191.671 8.876C192.102 9.53467 192.317 10.3073 192.317 11.194L192.355 11.118C192.963 10.5607 193.622 10.13 194.331 9.826C195.066 9.49667 195.851 9.332 196.687 9.332C197.447 9.332 198.169 9.49667 198.853 9.826C199.562 10.1553 200.221 10.5987 200.829 11.156C201.437 11.688 201.994 12.3087 202.501 13.018C203.008 13.7273 203.438 14.4747 203.793 15.26C204.148 16.02 204.426 16.7927 204.629 17.578C204.832 18.338 204.933 19.06 204.933 19.744C204.933 20.0987 204.857 20.4407 204.705 20.77C204.578 21.074 204.388 21.3653 204.135 21.644C203.907 21.8973 203.628 22.1 203.299 22.252C202.97 22.404 202.628 22.48 202.273 22.48ZM221.59 31.22C221.387 31.3467 221.02 31.4733 220.488 31.6C219.981 31.7013 219.424 31.8027 218.816 31.904C218.208 32.0053 217.613 32.0813 217.03 32.132C216.473 32.1827 216.067 32.208 215.814 32.208C214.902 32.208 213.952 32.1067 212.964 31.904C212.001 31.7013 211.115 31.372 210.304 30.916C209.519 30.46 208.86 29.852 208.328 29.092C207.821 28.332 207.568 27.3947 207.568 26.28C207.568 25.2667 207.809 24.3167 208.29 23.43C208.771 22.518 209.392 21.7327 210.152 21.074C210.912 20.4153 211.773 19.896 212.736 19.516C213.699 19.136 214.674 18.946 215.662 18.946C216.625 18.946 217.511 19.0727 218.322 19.326C219.133 19.5793 219.969 19.9213 220.83 20.352C220.754 19.7693 220.64 19.1487 220.488 18.49C220.361 17.8313 220.146 17.236 219.842 16.704C219.563 16.1467 219.183 15.6907 218.702 15.336C218.221 14.9813 217.6 14.804 216.84 14.804C216.105 14.804 215.535 14.9687 215.13 15.298C214.75 15.602 214.395 15.944 214.066 16.324C213.737 16.704 213.395 17.0587 213.04 17.388C212.711 17.692 212.242 17.844 211.634 17.844C210.925 17.844 210.279 17.5907 209.696 17.084C209.113 16.5773 208.822 15.944 208.822 15.184C208.822 14.348 209.101 13.5753 209.658 12.866C210.215 12.1313 210.899 11.498 211.71 10.966C212.521 10.434 213.382 10.0287 214.294 9.75C215.231 9.446 216.08 9.294 216.84 9.294C218.563 9.294 220.019 9.66133 221.21 10.396C222.401 11.1053 223.363 12.0553 224.098 13.246C224.858 14.4367 225.441 15.792 225.846 17.312C226.251 18.832 226.543 20.39 226.72 21.986C226.897 23.582 226.999 25.1527 227.024 26.698C227.049 28.218 227.062 29.586 227.062 30.802C227.062 31.182 226.986 31.5367 226.834 31.866C226.682 32.17 226.479 32.4487 226.226 32.702C225.973 32.93 225.669 33.12 225.314 33.272C224.985 33.3987 224.643 33.462 224.288 33.462C223.655 33.462 223.072 33.2467 222.54 32.816C222.008 32.3853 221.691 31.8533 221.59 31.22ZM215.89 24.456C215.257 24.456 214.725 24.57 214.294 24.798C213.863 25.026 213.597 25.2793 213.496 25.558C213.395 25.8367 213.496 26.09 213.8 26.318C214.104 26.546 214.674 26.66 215.51 26.66C216.473 26.66 217.22 26.546 217.752 26.318C218.309 26.09 218.613 25.8367 218.664 25.558C218.715 25.2793 218.512 25.026 218.056 24.798C217.625 24.57 216.903 24.456 215.89 24.456ZM236.34 14.5C236.34 15.26 236.238 16.0453 236.036 16.856C235.858 17.6413 235.77 18.4393 235.77 19.25C235.77 21.4287 235.985 23.0247 236.416 24.038C236.846 25.0513 237.404 25.558 238.088 25.558C238.797 25.558 239.57 25.102 240.406 24.19C241.267 23.2527 242.116 21.9353 242.952 20.238C243.306 19.5033 243.648 18.7687 243.978 18.034C244.307 17.2993 244.611 16.6153 244.89 15.982C245.168 15.3233 245.409 14.728 245.612 14.196C245.84 13.664 246.03 13.246 246.182 12.942C246.384 12.5113 246.714 12.182 247.17 11.954C247.626 11.7007 248.094 11.574 248.576 11.574C249.158 11.574 249.716 11.764 250.248 12.144C250.805 12.4987 251.134 12.98 251.236 13.588C251.362 14.348 251.451 15.184 251.502 16.096C251.578 16.9827 251.628 17.9073 251.654 18.87C251.704 19.8073 251.742 20.7573 251.768 21.72C251.818 22.6573 251.907 23.5567 252.034 24.418C252.16 25.2287 252.325 26.1027 252.528 27.04C252.756 27.9773 252.87 28.8513 252.87 29.662C252.87 30.0167 252.794 30.3587 252.642 30.688C252.515 30.992 252.325 31.2833 252.072 31.562C251.844 31.8153 251.565 32.018 251.236 32.17C250.906 32.322 250.564 32.398 250.21 32.398C249.374 32.398 248.728 32.1447 248.272 31.638C247.816 31.106 247.474 30.4727 247.246 29.738C247.018 28.978 246.866 28.1927 246.79 27.382C246.739 26.546 246.676 25.824 246.6 25.216C246.093 26.0013 245.536 26.7867 244.928 27.572C244.345 28.3573 243.699 29.0793 242.99 29.738C242.28 30.3713 241.495 30.8907 240.634 31.296C239.772 31.7013 238.822 31.904 237.784 31.904C236.264 31.904 235.01 31.4607 234.022 30.574C233.059 29.6873 232.286 28.598 231.704 27.306C231.146 25.9887 230.754 24.5953 230.526 23.126C230.323 21.6313 230.222 20.2887 230.222 19.098C230.222 18.5407 230.247 17.844 230.298 17.008C230.348 16.1467 230.475 15.336 230.678 14.576C230.906 13.7907 231.235 13.1193 231.666 12.562C232.122 12.0047 232.742 11.726 233.528 11.726C234.338 11.726 235.01 11.992 235.542 12.524C236.074 13.0307 236.34 13.6893 236.34 14.5ZM268.666 7.394C269.172 7.394 269.742 7.432 270.376 7.508C271.009 7.55867 271.604 7.698 272.162 7.926C272.744 8.12867 273.226 8.43267 273.606 8.838C273.986 9.24333 274.176 9.788 274.176 10.472C274.176 11.3333 273.897 12.0173 273.34 12.524C272.782 13.0307 272.098 13.284 271.288 13.284C270.832 13.284 270.388 13.2333 269.958 13.132C269.527 13.0053 269.071 12.942 268.59 12.942C267.45 12.942 266.474 13.0813 265.664 13.36C264.853 13.6133 264.296 13.9933 263.992 14.5C263.688 14.9813 263.675 15.564 263.954 16.248C264.258 16.932 264.942 17.6793 266.006 18.49C266.69 19.022 267.424 19.5793 268.21 20.162C269.02 20.7447 269.755 21.378 270.414 22.062C271.072 22.746 271.617 23.506 272.048 24.342C272.504 25.1527 272.732 26.052 272.732 27.04C272.732 28.18 272.478 29.168 271.972 30.004C271.465 30.8147 270.806 31.486 269.996 32.018C269.21 32.55 268.311 32.9427 267.298 33.196C266.31 33.4493 265.322 33.576 264.334 33.576C263.726 33.576 262.953 33.5633 262.016 33.538C261.104 33.538 260.204 33.4493 259.318 33.272C258.431 33.0947 257.671 32.7907 257.038 32.36C256.404 31.904 256.088 31.2327 256.088 30.346C256.088 29.5353 256.354 28.8767 256.886 28.37C257.418 27.838 258.089 27.572 258.9 27.572C259.736 27.572 260.584 27.6607 261.446 27.838C262.307 27.99 263.168 28.066 264.03 28.066C264.182 28.066 264.422 28.066 264.752 28.066C265.106 28.0407 265.461 27.99 265.816 27.914C266.17 27.838 266.487 27.7367 266.766 27.61C267.044 27.4833 267.184 27.306 267.184 27.078V27.002C267.082 26.622 266.778 26.204 266.272 25.748C265.765 25.292 265.157 24.798 264.448 24.266C263.764 23.7087 263.029 23.1133 262.244 22.48C261.458 21.8467 260.736 21.1627 260.078 20.428C259.419 19.668 258.874 18.87 258.444 18.034C258.013 17.1727 257.798 16.2607 257.798 15.298C257.798 13.9807 258.152 12.828 258.862 11.84C259.571 10.852 260.458 10.0287 261.522 9.37C262.611 8.71133 263.789 8.21733 265.056 7.888C266.322 7.55867 267.526 7.394 268.666 7.394ZM289.373 7.394C289.879 7.394 290.449 7.432 291.083 7.508C291.716 7.55867 292.311 7.698 292.869 7.926C293.451 8.12867 293.933 8.43267 294.313 8.838C294.693 9.24333 294.883 9.788 294.883 10.472C294.883 11.3333 294.604 12.0173 294.047 12.524C293.489 13.0307 292.805 13.284 291.995 13.284C291.539 13.284 291.095 13.2333 290.665 13.132C290.234 13.0053 289.778 12.942 289.297 12.942C288.157 12.942 287.181 13.0813 286.371 13.36C285.56 13.6133 285.003 13.9933 284.699 14.5C284.395 14.9813 284.382 15.564 284.661 16.248C284.965 16.932 285.649 17.6793 286.713 18.49C287.397 19.022 288.131 19.5793 288.917 20.162C289.727 20.7447 290.462 21.378 291.121 22.062C291.779 22.746 292.324 23.506 292.755 24.342C293.211 25.1527 293.439 26.052 293.439 27.04C293.439 28.18 293.185 29.168 292.679 30.004C292.172 30.8147 291.513 31.486 290.703 32.018C289.917 32.55 289.018 32.9427 288.005 33.196C287.017 33.4493 286.029 33.576 285.041 33.576C284.433 33.576 283.66 33.5633 282.723 33.538C281.811 33.538 280.911 33.4493 280.025 33.272C279.138 33.0947 278.378 32.7907 277.745 32.36C277.111 31.904 276.795 31.2327 276.795 30.346C276.795 29.5353 277.061 28.8767 277.593 28.37C278.125 27.838 278.796 27.572 279.607 27.572C280.443 27.572 281.291 27.6607 282.153 27.838C283.014 27.99 283.875 28.066 284.737 28.066C284.889 28.066 285.129 28.066 285.459 28.066C285.813 28.0407 286.168 27.99 286.523 27.914C286.877 27.838 287.194 27.7367 287.473 27.61C287.751 27.4833 287.891 27.306 287.891 27.078V27.002C287.789 26.622 287.485 26.204 286.979 25.748C286.472 25.292 285.864 24.798 285.155 24.266C284.471 23.7087 283.736 23.1133 282.951 22.48C282.165 21.8467 281.443 21.1627 280.785 20.428C280.126 19.668 279.581 18.87 279.151 18.034C278.72 17.1727 278.505 16.2607 278.505 15.298C278.505 13.9807 278.859 12.828 279.569 11.84C280.278 10.852 281.165 10.0287 282.229 9.37C283.318 8.71133 284.496 8.21733 285.763 7.888C287.029 7.55867 288.233 7.394 289.373 7.394Z" fill="#5DC6DD"></path>
</svg>
